<svg width="475" height="474" viewBox="0 0 475 474" fill="none" xmlns="http://www.w3.org/2000/svg">
<path fill-rule="evenodd" clip-rule="evenodd" d="M404.423 403.668C359.871 448.22 300.638 472.755 237.633 472.755C174.628 472.755 115.394 448.22 70.8419 403.668C26.2899 359.116 1.75488 299.882 1.75488 236.877C1.75488 173.872 26.2899 114.638 70.8419 70.086C115.394 25.535 174.628 1 237.633 1C300.638 1 359.871 25.535 404.423 70.086C448.975 114.638 473.51 173.872 473.51 236.877C473.51 299.882 448.975 359.116 404.423 403.668ZM405.13 69.379C360.39 24.639 300.904 0 237.633 0C174.361 0 114.875 24.639 70.1349 69.379C25.3949 114.12 0.754883 173.605 0.754883 236.877C0.754883 300.149 25.3949 359.635 70.1349 404.375C114.875 449.115 174.361 473.755 237.633 473.755C300.904 473.755 360.39 449.115 405.13 404.375C449.87 359.635 474.51 300.149 474.51 236.877C474.51 173.605 449.87 114.12 405.13 69.379ZM401.163 400.105C357.564 443.786 299.564 467.874 237.847 467.931H237.626C175.994 467.929 118.031 443.954 74.4039 400.407C30.7239 356.808 6.63588 298.808 6.57888 237.091C6.52288 175.374 30.5019 117.329 74.1019 73.648C117.701 29.968 175.702 5.88 237.419 5.823H237.639C299.271 5.823 357.234 29.8 400.86 73.346C444.541 116.946 468.629 174.946 468.686 236.663C468.743 298.38 444.763 356.425 401.163 400.105ZM401.568 72.639C357.748 28.901 299.542 4.823 237.639 4.823H237.418C175.434 4.881 117.183 29.072 73.3939 72.942C29.6059 116.812 5.52188 175.108 5.57888 237.092C5.63688 299.075 29.8279 357.327 73.6969 401.115C117.517 444.854 175.723 468.931 237.627 468.931H237.847C299.831 468.873 358.082 444.682 401.871 400.812C445.659 356.942 469.743 298.646 469.686 236.662C469.628 174.678 445.437 116.427 401.568 72.639ZM397.903 396.543C355.255 439.354 298.488 462.992 238.06 463.106H237.62C177.358 463.106 120.672 439.691 77.9669 397.147C35.1559 354.499 11.5179 297.732 11.4029 237.305C11.2889 176.876 34.7129 120.021 77.3609 77.211C120.01 34.401 176.777 10.762 237.205 10.647C237.353 10.647 237.498 10.647 237.646 10.647C297.908 10.647 354.593 34.062 397.299 76.606C440.109 119.254 463.748 176.021 463.862 236.449C463.977 296.878 440.552 353.733 397.903 396.543ZM398.004 75.897C355.108 33.163 298.179 9.647 237.646 9.647C237.501 9.647 237.348 9.647 237.203 9.647C176.508 9.762 119.49 33.506 76.6529 76.505C33.8169 119.504 10.2879 176.611 10.4029 237.307C10.5179 298.002 34.2619 355.02 77.2609 397.856C120.157 440.591 177.087 464.109 237.62 464.106H238.062C298.757 463.992 355.775 440.248 398.611 397.249C441.448 354.25 464.977 297.143 464.862 236.447C464.747 175.752 441.003 118.734 398.004 75.897ZM394.644 392.98C352.946 434.92 297.413 458.111 238.275 458.282C238.05 458.283 237.837 458.283 237.613 458.283C178.724 458.28 123.31 435.427 81.5279 393.888C39.5899 352.191 16.3989 296.658 16.2269 237.519C16.0559 178.379 38.9249 122.712 80.6209 80.773C122.319 38.835 177.852 15.643 236.991 15.472C237.215 15.471 237.428 15.471 237.652 15.471C296.541 15.471 351.956 38.327 393.736 79.866C435.675 121.563 458.866 177.096 459.038 236.235C459.209 295.375 436.34 351.042 394.644 392.98ZM394.442 79.157C352.467 37.425 296.815 14.471 237.652 14.471C237.434 14.471 237.205 14.471 236.987 14.472H236.988C177.581 14.644 121.798 37.94 79.9119 80.068C38.0269 122.197 15.0549 178.115 15.2269 237.522C15.3989 296.928 38.6949 352.712 80.8229 394.598C122.798 436.329 178.45 459.286 237.613 459.283C237.831 459.283 238.06 459.283 238.277 459.282C297.684 459.11 353.467 435.814 395.353 393.686C437.237 351.558 460.21 295.64 460.038 236.232C459.866 176.826 436.569 121.042 394.442 79.157ZM391.383 389.418C350.638 430.487 296.338 453.23 238.487 453.458C238.191 453.459 237.903 453.46 237.608 453.46C180.088 453.457 125.948 431.164 85.0909 390.628C44.0229 349.883 21.2789 295.583 21.0509 237.732C20.8219 179.881 43.1359 125.404 83.8819 84.335C124.627 43.267 178.927 20.524 236.777 20.295C237.07 20.294 237.363 20.293 237.656 20.293C295.18 20.293 349.314 42.587 390.174 83.126C431.242 123.872 453.986 178.171 454.214 236.022C454.443 293.873 432.129 348.35 391.383 389.418ZM390.878 82.416C349.621 41.482 294.91 19.104 236.774 19.295C178.655 19.525 124.106 42.373 83.1719 83.631C42.2379 124.889 19.8209 179.618 20.0509 237.736C20.2799 295.855 43.1289 350.404 84.3869 391.338C125.436 432.064 179.819 454.46 237.608 454.46C237.902 454.46 238.197 454.459 238.491 454.458C296.61 454.229 351.159 431.381 392.093 390.123C433.027 348.864 455.444 294.136 455.214 236.018C454.985 177.9 432.136 123.35 390.878 82.416ZM388.123 385.856C348.33 426.054 295.264 448.35 238.701 448.635C238.338 448.637 237.979 448.638 237.615 448.638C121.349 448.636 26.4629 354.346 25.8749 237.946C25.2849 121.183 119.8 25.709 236.564 25.12C236.927 25.118 237.286 25.117 237.65 25.117C353.917 25.117 448.802 119.408 449.39 235.808C449.675 292.371 427.917 345.659 388.123 385.856ZM387.315 85.675C347.189 45.952 294.082 24.117 237.662 24.117C237.295 24.117 236.926 24.118 236.558 24.12C119.243 24.712 24.2829 120.636 24.8749 237.951C25.4659 354.908 120.789 449.638 237.615 449.638C237.973 449.638 238.349 449.637 238.707 449.635C356.022 449.043 450.982 353.118 450.39 235.803C450.103 178.974 427.702 125.657 387.315 85.675ZM384.863 382.294C346.022 421.621 294.189 443.468 238.915 443.811C238.477 443.814 238.05 443.814 237.612 443.814C124.107 443.808 31.4029 351.824 30.6989 238.16C29.9919 124.056 122.246 30.651 236.35 29.943C236.788 29.94 237.215 29.939 237.652 29.939C351.158 29.939 443.861 121.93 444.566 235.594C444.908 290.868 423.706 342.967 384.863 382.294ZM237.652 28.939C237.22 28.939 236.777 28.941 236.344 28.943C121.69 29.654 28.9879 123.511 29.6989 238.166C30.4069 352.387 123.549 444.814 237.612 444.814C238.045 444.814 238.487 444.814 238.921 444.811C294.462 444.467 346.545 422.514 385.575 382.997C424.606 343.48 445.91 291.129 445.566 235.588C444.858 121.367 351.716 28.939 237.652 28.939ZM239.129 438.986C238.619 438.99 238.119 438.992 237.61 438.992C126.861 438.986 36.3449 349.307 35.5239 238.373C35.1229 184.388 55.7709 133.478 93.6609 95.022C131.553 56.566 182.152 35.168 236.137 34.768C236.647 34.764 237.148 34.762 237.657 34.762C348.405 34.762 438.92 124.447 439.742 235.381C440.568 346.824 350.572 438.161 239.129 438.986ZM236.129 33.768C181.876 34.169 131.027 55.674 92.9489 94.32C54.8709 132.967 34.1209 184.128 34.5239 238.381C34.9249 292.633 56.4299 343.482 95.0759 381.561C133.357 419.278 183.91 439.994 237.591 439.992C238.104 439.992 238.623 439.99 239.137 439.986C351.131 439.157 441.571 347.368 440.742 235.373C439.913 123.378 348.145 32.978 236.129 33.768ZM239.343 434.162C238.754 434.167 238.172 434.17 237.584 434.17C185.543 434.168 136.506 414.115 99.3399 377.588C61.7549 340.648 40.8039 291.284 40.3469 238.587C39.4039 129.804 127.139 40.535 235.922 39.592C236.507 39.587 237.076 39.584 237.659 39.584C345.648 39.584 433.98 126.968 434.918 235.167C435.86 343.951 348.126 433.22 239.343 434.162ZM237.659 38.585C237.08 38.585 236.494 38.587 235.914 38.592C126.579 39.54 38.3999 129.261 39.3469 238.596C39.8059 291.56 60.8629 341.175 98.6389 378.301C135.995 415.016 185.276 435.17 237.584 435.17C238.171 435.17 238.763 435.167 239.351 435.162C348.686 434.215 436.865 344.493 435.918 235.158C434.975 126.404 346.204 38.585 237.659 38.585ZM375.083 371.607C339.096 408.322 290.964 428.824 239.556 429.338C238.902 429.345 238.254 429.348 237.602 429.348C132.367 429.345 46.2259 344.271 45.1709 238.801C44.1109 132.677 129.586 45.477 235.709 44.416C236.363 44.409 237.01 44.406 237.662 44.406C342.897 44.406 429.039 129.484 430.094 234.953C430.608 286.361 411.071 334.893 375.083 371.607ZM235.699 43.416C129.025 44.482 43.1059 132.136 44.1709 238.811C44.6879 290.486 65.2969 338.867 102.202 375.042C138.634 410.753 186.64 430.348 237.578 430.348C238.239 430.348 238.903 430.345 239.566 430.338C291.241 429.821 339.623 409.213 375.798 372.308C411.973 335.402 431.61 286.619 431.094 234.943C430.027 128.269 342.407 42.382 235.699 43.416ZM239.77 424.515C239.044 424.523 238.325 424.527 237.602 424.527C135.123 424.523 51.1649 341.751 49.9949 239.014C48.8169 135.551 132.031 50.418 235.495 49.24C236.23 49.231 236.958 49.227 237.692 49.227C286.995 49.227 333.482 68.163 368.801 102.686C404.645 137.722 424.698 184.62 425.27 234.74C426.448 338.203 343.234 423.336 239.77 424.515ZM369.5 101.971C333.99 67.262 287.262 48.227 237.692 48.227C236.958 48.227 236.219 48.231 235.484 48.24C131.469 49.425 47.8109 135.011 48.9949 239.026C50.1719 342.316 134.568 425.527 237.601 425.527C238.323 425.527 239.058 425.522 239.781 425.515C343.796 424.33 427.454 338.743 426.27 234.728C425.695 184.341 405.534 137.194 369.5 101.971ZM368.563 364.483C334.478 399.456 288.815 419.063 239.983 419.69C239.175 419.701 238.374 419.706 237.568 419.706C189.634 419.704 144.42 401.329 110.027 367.808C75.0539 333.723 55.4469 288.059 54.8189 239.228C54.1919 190.397 72.6169 144.244 106.702 109.271C140.787 74.298 186.45 54.692 235.282 54.064C236.09 54.054 236.892 54.048 237.697 54.048C285.632 54.048 330.845 72.425 365.238 105.946C400.211 140.031 419.818 185.695 420.445 234.526C421.073 283.357 402.648 329.511 368.563 364.483ZM421.445 234.514C420.815 185.415 401.101 139.501 365.937 105.23C330.773 70.959 284.4 52.429 235.269 53.064C186.171 53.695 140.257 73.409 105.986 108.573C71.7149 143.737 53.1889 190.142 53.8189 239.24C54.4509 288.339 74.1639 334.253 109.328 368.524C143.912 402.231 189.368 420.707 237.568 420.706C238.375 420.706 239.187 420.701 239.996 420.69C289.094 420.06 335.008 400.346 369.279 365.182C403.55 330.018 422.076 283.612 421.445 234.514ZM240.197 414.866C239.322 414.879 238.466 414.885 237.595 414.885C140.633 414.876 61.0449 336.71 59.6439 239.441C58.9579 191.898 76.8279 146.935 109.962 112.833C143.095 78.731 187.526 59.573 235.068 58.888C235.943 58.875 236.799 58.869 237.67 58.869C334.631 58.869 414.22 137.044 415.622 234.313C417.036 332.457 338.341 413.452 240.197 414.866ZM237.671 57.869C236.8 57.869 235.927 57.875 235.054 57.888C187.244 58.577 142.565 77.842 109.244 112.136C75.9249 146.43 57.9539 191.646 58.6439 239.456C60.0529 337.276 140.08 415.885 237.594 415.885C238.465 415.885 239.338 415.879 240.211 415.866C338.906 414.444 418.044 332.993 416.622 234.298C415.212 136.477 335.185 57.869 237.671 57.869ZM362.043 357.359C329.861 390.591 286.664 409.301 240.41 410.042C239.456 410.058 238.508 410.065 237.556 410.065C192.361 410.064 149.696 392.806 117.151 361.287C83.9189 329.105 65.2089 285.909 64.4679 239.655C63.7259 193.4 81.0399 149.626 113.223 116.395C145.404 83.164 188.601 64.454 234.855 63.712C235.799 63.697 236.734 63.689 237.674 63.689C331.883 63.689 409.281 139.56 410.798 234.099C411.54 280.354 394.225 324.128 362.043 357.359ZM234.839 62.712C188.318 63.458 144.872 82.276 112.504 115.699C80.1359 149.123 62.7219 193.149 63.4679 239.67C64.2139 286.192 83.0309 329.638 116.455 362.006C149.191 393.708 192.096 411.065 237.556 411.065C238.511 411.065 239.469 411.058 240.426 411.042C286.947 410.296 330.394 391.479 362.762 358.055C395.129 324.632 412.544 280.605 411.798 234.084C410.256 138.049 330.836 61.174 234.839 62.712ZM358.783 353.797C327.553 386.157 285.589 404.419 240.624 405.218C239.61 405.236 238.599 405.245 237.588 405.245C146.131 405.244 70.9229 331.678 69.2909 239.868C67.6429 147.045 141.819 70.185 234.642 68.536C235.656 68.518 236.667 68.509 237.677 68.509C329.134 68.509 404.342 142.076 405.974 233.886C406.773 278.851 390.014 321.437 358.783 353.797ZM234.624 67.536C141.249 69.195 66.6329 146.511 68.2909 239.886C69.9329 332.246 145.579 406.245 237.588 406.245C238.599 406.245 239.627 406.235 240.642 406.218C285.874 405.414 328.086 387.044 359.503 354.491C390.919 321.939 407.777 279.101 406.974 233.868C405.315 140.493 327.979 65.871 234.624 67.536ZM355.523 350.235C325.243 381.725 284.514 399.538 240.837 400.394C197.119 401.244 155.764 385.045 124.275 354.767C92.7849 324.488 74.9709 283.759 74.1149 240.082C73.2589 196.405 89.4629 155.008 119.742 123.519C150.022 92.029 190.751 74.216 234.428 73.36C235.527 73.338 236.623 73.328 237.718 73.328C280.18 73.328 320.293 89.469 350.99 118.987C382.48 149.266 400.294 189.996 401.15 233.672C402.006 277.35 385.802 318.746 355.523 350.235ZM234.408 72.36C190.464 73.221 149.486 91.144 119.022 122.826C88.5579 154.508 72.2539 196.157 73.1149 240.101C73.9769 284.045 91.8999 325.023 123.581 355.487C154.469 385.188 194.821 401.426 237.546 401.426C238.646 401.426 239.754 401.415 240.857 401.394C284.801 400.532 325.779 382.61 356.243 350.929C386.707 319.246 403.011 277.597 402.15 233.653C400.371 142.938 325.114 70.557 234.408 72.36ZM352.262 346.673C322.935 377.292 283.439 394.657 241.05 395.57C198.658 396.501 158.455 380.834 127.836 351.507C97.2179 322.18 79.8529 282.683 78.9399 240.295C78.0269 197.906 93.6749 157.7 123.003 127.081C152.33 96.462 191.826 79.097 234.215 78.184C235.387 78.159 236.555 78.146 237.723 78.146C278.817 78.146 317.656 93.731 347.429 122.247C378.047 151.575 395.412 191.07 396.325 233.459C397.238 275.848 381.59 316.055 352.262 346.673ZM348.12 121.525C317.31 92.013 276.869 76.266 234.194 77.184C191.538 78.103 151.793 95.578 122.28 126.389C92.7689 157.201 77.0209 197.661 77.9399 240.316C78.8589 282.972 96.3329 322.717 127.145 352.23C157.107 380.928 196.187 396.608 237.541 396.608C238.715 396.608 239.895 396.596 241.071 396.57C283.727 395.651 323.472 378.177 352.985 347.365C382.496 316.554 398.244 276.093 397.325 233.438C396.406 190.782 378.932 151.037 348.12 121.525ZM349.002 343.111C320.626 372.859 282.363 389.776 241.264 390.746C240.031 390.775 238.808 390.79 237.581 390.79C154.388 390.786 85.7359 324.119 83.7639 240.508C81.7619 155.665 149.158 85.01 234.001 83.008C318.811 80.992 389.5 148.402 391.501 233.246C392.472 274.346 377.378 313.363 349.002 343.111ZM233.978 82.008C148.583 84.023 80.7489 155.137 82.7639 240.532C84.7499 324.691 153.84 391.79 237.581 391.79C238.811 391.79 240.052 391.775 241.287 391.746C282.654 390.77 321.165 373.743 349.726 343.802C378.286 313.86 393.478 274.589 392.501 233.222C390.485 147.827 319.363 80.04 233.978 82.008ZM345.741 339.55C318.317 368.427 281.288 384.896 241.477 385.922C201.647 386.956 163.837 372.41 134.96 344.985C106.083 317.561 89.6139 280.532 88.5879 240.721C87.5609 200.91 102.099 163.082 129.524 134.205C156.948 105.328 193.977 88.859 233.788 87.832C235.093 87.798 236.39 87.782 237.687 87.782C318.128 87.782 384.591 152.153 386.678 233.033C387.704 272.844 373.166 310.673 345.741 339.55ZM233.763 86.832C193.684 87.866 156.407 104.445 128.798 133.516C101.19 162.586 86.5539 200.668 87.5879 240.747C88.6219 280.825 105.201 318.102 134.272 345.711C162.382 372.408 198.912 386.973 237.532 386.973C238.851 386.973 240.179 386.956 241.502 386.922C281.581 385.888 318.858 369.309 346.467 340.238C374.075 311.168 388.711 273.085 387.678 233.007C385.544 150.272 316.494 84.692 233.763 86.832ZM342.482 335.987C316.008 363.994 280.213 380.015 241.691 381.098C203.16 382.177 166.528 368.199 138.522 341.726C110.516 315.253 94.4949 279.458 93.4109 240.934C91.1739 161.411 154.052 94.893 233.574 92.656C234.953 92.617 236.318 92.598 237.688 92.598C315.375 92.598 379.655 154.674 381.854 232.82C382.938 271.342 368.954 307.981 342.482 335.987ZM233.547 91.656C153.472 93.909 90.1589 160.888 92.4109 240.962C94.6259 319.654 159.344 382.156 237.576 382.156C238.951 382.156 240.335 382.137 241.718 382.098C280.508 381.007 316.551 364.875 343.208 336.675C369.864 308.475 383.944 271.582 382.854 232.792C380.6 152.717 313.591 89.423 233.547 91.656ZM339.221 332.426C313.698 359.562 279.137 375.134 241.902 376.273C204.688 377.417 169.219 363.987 142.083 338.465C114.948 312.943 99.3759 278.382 98.2359 241.147C97.0949 203.913 110.522 168.463 136.044 141.328C161.567 114.193 196.128 98.621 233.362 97.48C310.188 95.134 374.674 155.743 377.029 232.606C378.17 269.841 364.743 305.291 339.221 332.426ZM233.331 96.48C195.83 97.629 161.021 113.313 135.316 140.643C109.611 167.973 96.0869 203.677 97.2359 241.178C98.3849 278.679 114.069 313.488 141.399 339.193C167.655 363.89 201.638 377.341 237.523 377.341C238.988 377.341 240.462 377.318 241.934 377.273C279.435 376.125 314.244 360.441 339.949 333.111C365.654 305.781 379.178 270.077 378.029 232.576C375.657 155.161 310.772 94.117 233.331 96.48ZM335.96 328.864C311.39 355.129 278.062 370.253 242.116 371.45C206.169 372.66 171.909 359.775 145.646 335.205C119.381 310.634 104.257 277.306 103.06 241.36C101.861 205.415 114.735 171.154 139.305 144.89C163.876 118.626 197.204 103.501 233.15 102.304C234.686 102.253 236.217 102.227 237.746 102.227C272.007 102.227 304.478 115.028 329.62 138.549C355.884 163.12 371.008 196.448 372.205 232.394C373.403 268.339 360.531 302.6 335.96 328.864ZM233.116 101.305C196.903 102.511 163.328 117.747 138.574 144.207C113.821 170.666 100.854 205.181 102.06 241.394C104.499 314.62 164.844 372.526 237.573 372.526C239.091 372.526 240.621 372.501 242.15 372.45C316.904 369.959 375.695 307.115 373.205 232.36C370.715 157.606 307.88 98.791 233.116 101.305ZM332.7 325.303C309.08 350.696 276.986 365.372 242.328 366.626C240.735 366.684 239.154 366.713 237.571 366.713C168.134 366.709 110.415 311.523 107.884 241.573C105.294 170.029 161.393 109.717 232.937 107.127C304.475 104.531 364.792 160.637 367.381 232.181C368.636 266.838 356.319 299.909 332.7 325.303ZM237.694 106.042C236.104 106.042 234.502 106.07 232.9 106.128C160.806 108.738 104.275 169.515 106.884 241.609C109.436 312.103 167.593 367.713 237.571 367.713C239.161 367.713 240.763 367.684 242.365 367.626C277.289 366.361 309.631 351.573 333.432 325.983C357.234 300.395 369.645 267.068 368.381 232.145C365.829 161.651 307.672 106.042 237.694 106.042ZM329.44 321.741C306.771 346.264 275.91 360.491 242.541 361.802C240.859 361.868 239.187 361.901 237.512 361.901C205.983 361.899 176.055 350.209 152.769 328.684C128.246 306.016 114.019 275.155 112.708 241.786C111.397 208.417 123.157 176.535 145.826 152.013C168.494 127.49 199.355 113.263 232.724 111.952C234.389 111.886 236.043 111.854 237.695 111.854C304.386 111.854 359.916 164.749 362.558 231.968C363.869 265.337 352.108 297.219 329.44 321.741ZM232.685 110.953C199.049 112.274 167.941 126.615 145.092 151.334C122.242 176.052 110.387 208.189 111.708 241.825C113.03 275.461 127.371 306.568 152.09 329.418C175.564 351.116 205.727 362.901 237.511 362.901C239.196 362.901 240.887 362.868 242.58 362.802C276.216 361.48 307.324 347.139 330.173 322.42C353.023 297.701 364.879 265.564 363.558 231.929C360.828 162.495 302.153 108.229 232.685 110.953ZM242.754 356.978C241.016 357.052 239.292 357.089 237.569 357.089C173.625 357.085 120.281 306.485 117.531 241.999C114.707 175.775 166.287 119.6 232.511 116.776C298.732 113.959 354.909 165.531 357.734 231.755C360.558 297.98 308.978 354.154 242.754 356.978ZM232.468 115.777C165.694 118.625 113.685 175.267 116.531 242.042C119.305 307.068 173.088 358.089 237.569 358.089C239.302 358.089 241.048 358.052 242.797 357.978C309.571 355.13 361.58 298.488 358.734 231.712C355.886 164.938 299.241 112.931 232.468 115.777ZM322.918 314.619C302.152 337.399 273.758 350.73 242.966 352.154C212.173 353.569 182.671 342.927 159.891 322.162C137.111 301.397 123.78 273.002 122.355 242.211C119.414 178.647 168.736 124.541 232.299 121.6C295.856 118.665 349.968 167.979 352.91 231.543C354.335 262.335 343.684 291.839 322.918 314.619ZM232.252 120.601C168.138 123.567 118.39 178.143 121.357 242.257C122.793 273.315 136.239 301.955 159.217 322.901C180.833 342.605 208.449 353.28 237.504 353.28C239.334 353.28 241.172 353.238 243.013 353.152C274.071 351.716 302.711 338.271 323.657 315.292C344.603 292.314 355.346 262.556 353.908 231.497C350.942 167.382 296.389 117.643 232.252 120.601ZM243.179 347.331C241.298 347.425 239.433 347.472 237.569 347.472C179.114 347.468 130.143 301.446 127.179 242.423C124.121 181.519 171.182 129.482 232.086 126.424C293.003 123.352 345.028 170.427 348.086 231.331C351.144 292.235 304.083 344.272 243.179 347.331ZM232.035 125.425C170.581 128.511 123.095 181.019 126.181 242.473C129.171 302.033 178.58 348.472 237.569 348.472C239.445 348.472 241.335 348.425 243.23 348.329C304.684 345.243 352.17 292.735 349.084 231.281C345.998 169.826 293.513 122.327 232.035 125.425ZM316.396 307.496C297.532 328.535 271.606 340.969 243.391 342.507C215.19 344.046 188.051 334.504 167.013 315.641C145.975 296.777 133.541 270.85 132.003 242.635C128.828 184.392 173.63 134.423 231.874 131.247C290.098 128.086 340.086 172.874 343.262 231.119C344.8 259.333 335.259 286.458 316.396 307.496ZM231.819 130.249C173.025 133.455 127.8 183.896 131.005 242.69C132.558 271.171 145.109 297.344 166.346 316.385C186.101 334.098 211.17 343.668 237.499 343.667C239.474 343.667 241.458 343.613 243.445 343.505C271.927 341.952 298.099 329.401 317.14 308.164C336.182 286.927 345.813 259.545 344.26 231.064C341.055 172.27 290.622 127.032 231.819 130.249ZM243.604 337.683C241.578 337.803 239.571 337.861 237.569 337.861C184.596 337.856 139.999 296.406 136.827 242.847C135.233 215.921 144.219 189.986 162.131 169.818C180.042 149.651 204.736 137.667 231.662 136.071C287.25 132.789 335.146 175.323 338.439 230.907C341.731 286.491 299.188 334.391 243.604 337.683ZM231.604 135.073C204.41 136.684 179.472 148.788 161.383 169.154C143.293 189.522 134.218 215.714 135.829 242.907C139.032 296.999 184.067 338.861 237.568 338.861C239.587 338.861 241.62 338.802 243.662 338.681C299.797 335.356 342.761 286.982 339.437 230.847C336.111 174.712 287.713 131.746 231.604 135.073ZM309.873 300.375C292.912 319.671 269.452 331.207 243.815 332.858C241.718 332.993 239.64 333.06 237.568 333.06C187.332 333.057 144.925 293.888 141.651 243.059C138.242 190.135 178.527 144.304 231.45 140.896C284.381 137.475 330.205 177.771 333.614 230.695C335.266 256.333 326.834 281.079 309.873 300.375ZM231.386 139.897C177.911 143.342 137.209 189.649 140.652 243.124C143.961 294.483 186.806 334.06 237.567 334.06C239.657 334.06 241.764 333.992 243.879 333.856C269.783 332.189 293.487 320.532 310.624 301.035C327.762 281.538 336.28 256.535 334.612 230.63C331.168 177.157 284.896 136.452 231.386 139.897ZM306.612 296.814C290.602 315.239 268.375 326.327 244.026 328.034C193.763 331.575 150.001 293.535 146.475 243.271C142.949 193.006 180.975 149.244 231.239 145.719C233.405 145.567 235.557 145.492 237.696 145.492C285.198 145.492 325.416 182.385 328.79 230.483C330.498 254.833 322.622 278.389 306.612 296.814ZM231.169 144.721C180.355 148.285 141.913 192.526 145.477 243.341C148.888 291.969 189.541 329.266 237.568 329.261C239.727 329.261 241.909 329.186 244.096 329.032C268.711 327.306 291.182 316.097 307.366 297.471C323.552 278.844 331.515 255.029 329.788 230.413C326.224 179.599 281.991 141.16 231.169 144.721ZM244.237 323.211C196.611 326.863 154.941 291.085 151.298 243.482C149.534 220.421 156.856 198.054 171.915 180.5C186.974 162.946 207.967 152.307 231.027 150.543C278.636 146.895 320.324 182.668 323.967 230.272C327.609 277.877 291.842 319.569 244.237 323.211ZM230.951 149.546C207.624 151.33 186.389 162.092 171.155 179.849C155.923 197.606 148.517 220.231 150.301 243.558C153.813 289.452 192.28 324.469 237.571 324.467C239.802 324.467 242.054 324.382 244.314 324.209C292.468 320.524 328.648 278.351 324.964 230.196C321.28 182.041 279.099 145.87 230.951 149.546ZM300.088 289.694C285.98 306.377 266.22 316.567 244.447 318.388C222.684 320.204 201.498 313.441 184.816 299.333C168.133 285.225 157.943 265.465 156.122 243.692C154.302 221.92 161.069 200.742 175.177 184.06C189.285 167.377 209.045 157.187 230.818 155.367C252.581 153.549 273.767 160.314 290.449 174.421C307.132 188.529 317.322 208.29 319.143 230.062C320.963 251.834 314.196 273.012 300.088 289.694ZM291.095 173.658C274.209 159.377 252.771 152.525 230.734 154.371C208.695 156.213 188.694 166.527 174.413 183.414C160.133 200.3 153.283 221.737 155.126 243.775C156.969 265.814 167.283 285.816 184.17 300.097C199.252 312.852 217.964 319.679 237.493 319.679C239.829 319.679 242.177 319.581 244.531 319.384C266.569 317.541 286.571 307.227 300.852 290.34C315.132 273.454 321.982 252.017 320.139 229.979C318.296 207.94 307.982 187.938 291.095 173.658ZM296.826 286.135C283.669 301.946 265.143 311.688 244.658 313.564C224.173 315.441 204.186 309.228 188.375 296.07C172.564 282.913 162.822 264.386 160.946 243.903C157.072 201.617 188.321 164.064 230.607 160.19C272.879 156.309 310.445 187.566 314.319 229.851C316.196 250.335 309.984 270.324 296.826 286.135ZM230.515 159.194C187.682 163.119 156.027 201.16 159.95 243.994C161.852 264.744 171.719 283.511 187.736 296.839C201.879 308.608 219.321 314.892 237.495 314.892C239.902 314.892 242.323 314.781 244.75 314.56C265.499 312.658 284.267 302.791 297.595 286.774C310.923 270.758 317.216 250.51 315.316 229.76C311.39 186.926 273.359 155.276 230.515 159.194ZM293.564 282.575C281.358 297.516 264.064 306.808 244.868 308.74C205.238 312.724 169.759 283.738 165.769 244.112C163.836 224.917 169.494 206.118 181.701 191.179C193.907 176.239 211.201 166.947 230.397 165.014C270.031 161.023 305.505 190.017 309.496 229.642C311.428 248.837 305.771 267.636 293.564 282.575ZM230.297 164.019C210.836 165.979 193.302 175.399 180.927 190.546C168.551 205.692 162.815 224.751 164.775 244.213C168.569 281.905 200.472 310.107 237.578 310.106C240.021 310.106 242.486 309.984 244.968 309.734C264.429 307.775 281.963 298.355 294.338 283.208C306.714 268.062 312.45 249.002 310.49 229.541C306.445 189.368 270.482 159.968 230.297 164.019ZM245.077 303.916C208.117 308.022 174.699 281.287 170.593 244.322C166.488 207.356 193.223 173.942 230.189 169.837C232.706 169.558 235.206 169.421 237.683 169.421C271.569 169.421 300.846 194.984 304.672 229.432C308.777 266.398 282.043 299.812 245.077 303.916ZM230.077 168.843C192.565 173.009 165.434 206.918 169.599 244.432C173.482 279.393 203.191 305.336 237.581 305.332C240.093 305.332 242.635 305.193 245.189 304.91C282.701 300.745 309.831 266.836 305.666 229.322C301.501 191.809 267.617 164.685 230.077 168.843ZM245.285 299.094C242.697 299.412 240.132 299.566 237.588 299.566C206.41 299.564 179.319 276.248 175.416 244.53C173.372 227.912 177.922 211.492 188.228 198.295C198.533 185.099 213.361 176.705 229.98 174.661C264.283 170.442 295.628 194.918 299.849 229.224C304.069 263.53 279.592 294.873 245.285 299.094ZM229.857 173.668C212.974 175.745 197.909 184.272 187.44 197.68C176.969 211.087 172.347 227.769 174.424 244.652C178.388 276.878 205.91 300.566 237.587 300.566C240.17 300.566 242.78 300.409 245.408 300.086C280.262 295.799 305.129 263.955 300.841 229.102C296.554 194.249 264.72 169.38 229.857 173.668ZM283.774 271.902C274.418 284.227 260.823 292.171 245.493 294.271C230.159 296.37 214.933 292.374 202.608 283.019C190.283 273.663 182.339 260.068 180.239 244.738C178.14 229.407 182.136 214.177 191.491 201.852C200.847 189.527 214.442 181.584 229.772 179.484C232.441 179.119 235.106 178.938 237.753 178.938C250.316 178.938 262.478 183.009 272.657 190.736C284.982 200.091 292.926 213.686 295.026 229.016C297.125 244.347 293.129 259.577 283.774 271.902ZM273.262 189.939C260.724 180.422 245.231 176.358 229.637 178.493C214.041 180.629 200.212 188.71 190.694 201.248C181.178 213.785 177.113 229.278 179.249 244.874C181.385 260.468 189.466 274.298 202.003 283.815C212.36 291.676 224.73 295.817 237.51 295.816C240.202 295.816 242.915 295.633 245.628 295.261C261.224 293.125 275.054 285.044 284.57 272.506C294.087 259.969 298.152 244.476 296.016 228.88C293.88 213.286 285.799 199.456 273.262 189.939ZM280.51 268.345C272.104 279.798 259.741 287.293 245.699 289.447C231.659 291.599 217.616 288.159 206.164 279.754C194.711 271.349 187.218 258.986 185.063 244.944C182.908 230.902 186.351 216.861 194.756 205.409C203.161 193.956 215.524 186.461 229.566 184.307C232.288 183.889 234.99 183.687 237.664 183.687C263.457 183.687 286.172 202.545 290.203 228.81C292.358 242.852 288.915 256.893 280.51 268.345ZM229.413 183.318C199.882 187.85 179.542 215.563 184.074 245.096C188.181 271.856 211.319 291.067 237.6 291.067C240.322 291.067 243.079 290.861 245.852 290.436C275.384 285.904 295.724 258.19 291.192 228.658C286.658 199.126 258.949 178.791 229.413 183.318ZM277.244 264.791C269.788 275.372 258.658 282.415 245.904 284.625C233.149 286.834 220.3 283.944 209.719 276.488C199.139 269.032 192.095 257.902 189.885 245.148C187.676 232.395 190.565 219.544 198.021 208.963C205.477 198.382 216.607 191.339 229.361 189.129C232.149 188.647 234.919 188.414 237.657 188.414C260.776 188.414 281.302 205.065 285.381 228.606C287.59 241.359 284.7 254.21 277.244 264.791ZM229.191 188.144C216.173 190.399 204.814 197.588 197.203 208.387C189.594 219.187 186.645 232.302 188.901 245.319C191.155 258.336 198.344 269.696 209.143 277.306C217.576 283.249 227.42 286.349 237.527 286.348C240.363 286.348 243.223 286.104 246.074 285.61C259.092 283.355 270.451 276.166 278.062 265.367C285.672 254.568 288.621 241.452 286.365 228.435C281.71 201.564 256.062 183.49 229.191 188.144ZM246.108 279.803C243.257 280.366 240.419 280.636 237.618 280.636C217.155 280.634 198.818 266.17 194.706 245.352C190.034 221.682 205.488 198.624 229.157 193.951C252.837 189.277 275.885 204.734 280.559 228.402C285.231 252.072 269.777 275.13 246.108 279.803ZM228.964 192.97C204.754 197.75 188.946 221.335 193.726 245.545C197.93 266.841 216.686 281.636 237.617 281.636C240.482 281.636 243.387 281.359 246.301 280.784C270.511 276.004 286.319 252.419 281.539 228.209C276.76 203.999 253.172 188.193 228.964 192.97ZM270.711 257.687C265.152 266.523 256.486 272.665 246.307 274.982C225.303 279.764 204.312 266.563 199.527 245.552C197.21 235.374 198.995 224.902 204.555 216.067C210.113 207.231 218.779 201.089 228.958 198.772C231.866 198.11 234.772 197.793 237.637 197.793C255.466 197.793 271.615 210.1 275.737 228.202C278.055 238.38 276.27 248.852 270.711 257.687ZM228.736 197.797C218.297 200.173 209.409 206.473 203.708 215.534C198.007 224.596 196.176 235.335 198.553 245.773C202.779 264.34 219.342 276.961 237.628 276.961C240.565 276.961 243.548 276.636 246.529 275.957C256.968 273.581 265.857 267.281 271.558 258.22C277.258 249.158 279.089 238.419 276.712 227.981C271.807 206.432 250.283 192.89 228.736 197.797ZM267.442 254.14C262.83 262.103 255.395 267.793 246.504 270.162C228.143 275.055 209.239 264.1 204.348 245.748C201.978 236.857 203.212 227.576 207.823 219.614C212.435 211.651 219.87 205.961 228.762 203.592C237.652 201.223 246.933 202.457 254.896 207.068C262.858 211.679 268.548 219.115 270.917 228.006C273.287 236.897 272.053 246.178 267.442 254.14ZM255.397 206.203C247.204 201.457 237.652 200.186 228.504 202.626C219.355 205.064 211.703 210.919 206.958 219.112C202.213 227.306 200.943 236.856 203.381 246.006C207.604 261.846 221.972 272.329 237.641 272.328C240.653 272.328 243.716 271.94 246.762 271.128C255.91 268.69 263.562 262.835 268.307 254.642C273.052 246.448 274.322 236.897 271.884 227.748C269.445 218.599 263.59 210.947 255.397 206.203ZM264.171 250.599C260.505 257.687 254.299 262.924 246.695 265.345C239.092 267.766 231 267.081 223.911 263.415C216.822 259.75 211.586 253.543 209.165 245.939C206.744 238.335 207.43 230.244 211.095 223.155C214.76 216.067 220.966 210.83 228.569 208.409C231.573 207.453 234.616 206.999 237.612 206.999C250.275 206.999 262.059 215.121 266.1 227.814C268.521 235.418 267.836 243.51 264.171 250.599ZM251.813 209.451C244.487 205.662 236.123 204.955 228.267 207.456C220.408 209.958 213.994 215.37 210.206 222.696C206.419 230.022 205.71 238.384 208.212 246.243C210.714 254.102 216.126 260.516 223.452 264.303C227.901 266.604 232.73 267.768 237.598 267.768C240.746 267.768 243.912 267.28 246.998 266.298C254.857 263.796 261.271 258.384 265.059 251.058C268.847 243.732 269.555 235.369 267.053 227.511C264.551 219.652 259.139 213.238 251.813 209.451ZM246.879 260.531C240.561 263.001 233.66 262.863 227.444 260.142C221.231 257.42 216.448 252.442 213.979 246.124C211.508 239.805 211.647 232.903 214.368 226.689C217.089 220.475 222.068 215.692 228.386 213.223C241.427 208.123 256.189 214.587 261.287 227.63C266.386 240.674 259.922 255.433 246.879 260.531ZM228.023 212.291C221.455 214.858 216.28 219.829 213.452 226.288C210.623 232.747 210.48 239.92 213.047 246.488C215.614 253.055 220.585 258.229 227.044 261.058C230.438 262.544 234.028 263.289 237.625 263.289C240.873 263.289 244.126 262.681 247.242 261.463C253.81 258.896 258.985 253.925 261.813 247.466C264.642 241.007 264.785 233.834 262.219 227.266C256.918 213.709 241.576 206.992 228.023 212.291ZM247.052 255.726C236.659 260.919 223.978 256.689 218.783 246.296C213.59 235.903 217.82 223.222 228.213 218.028C231.229 216.522 234.436 215.808 237.598 215.808C245.334 215.808 252.794 220.08 256.482 227.458C261.675 237.851 257.445 250.532 247.052 255.726ZM227.766 217.134C216.88 222.574 212.449 235.857 217.889 246.744C221.751 254.472 229.565 258.946 237.668 258.946C240.98 258.946 244.341 258.198 247.499 256.62C252.773 253.985 256.704 249.454 258.569 243.861C260.436 238.269 260.011 232.284 257.376 227.01C251.936 216.125 238.652 211.693 227.766 217.134ZM254.345 240.047C253.498 244.511 250.963 248.378 247.208 250.936C243.452 253.494 238.925 254.437 234.463 253.589C229.998 252.742 226.131 250.208 223.573 246.453C218.294 238.7 220.305 228.098 228.057 222.818C230.913 220.873 234.215 219.862 237.597 219.862C238.661 219.862 239.734 219.962 240.802 220.165C245.267 221.012 249.134 223.546 251.692 227.301C254.249 231.057 255.192 235.583 254.345 240.047ZM240.988 219.182C236.261 218.288 231.469 219.283 227.494 221.992C219.286 227.582 217.156 238.807 222.747 247.015C225.455 250.992 229.55 253.675 234.277 254.572C235.408 254.786 236.543 254.893 237.67 254.893C241.251 254.892 244.747 253.822 247.771 251.762C251.747 249.054 254.431 244.96 255.327 240.233C256.224 235.507 255.226 230.714 252.518 226.739C249.81 222.762 245.715 220.079 240.988 219.182ZM247.343 246.179C242.215 251.533 233.685 251.716 228.33 246.587C225.736 244.103 224.266 240.757 224.189 237.166C224.111 233.575 225.438 230.168 227.922 227.575C233.05 222.221 241.58 222.037 246.935 227.167C249.528 229.651 250.999 232.997 251.076 236.588C251.153 240.179 249.827 243.585 247.343 246.179ZM227.199 226.883C224.53 229.669 223.106 233.329 223.189 237.187C223.272 241.045 224.852 244.64 227.639 247.309C230.434 249.987 234.033 251.317 237.63 251.317C241.433 251.317 245.233 249.828 248.066 246.871C250.735 244.085 252.159 240.425 252.076 236.567C251.993 232.709 250.413 229.114 247.626 226.445C241.876 220.936 232.713 221.13 227.199 226.883Z" fill="url(#paint0_radial_1_3515)"/>
<defs>
<radialGradient id="paint0_radial_1_3515" cx="0" cy="0" r="1" gradientUnits="userSpaceOnUse" gradientTransform="translate(237.632 236.877) rotate(90) scale(208.37)">
<stop stop-color="#F7295F" stop-opacity="0.01"/>
<stop offset="0.237022" stop-color="#F7295F" stop-opacity="0.373525"/>
<stop offset="0.432108" stop-color="#F53522"/>
<stop offset="0.784862" stop-color="#F7295F" stop-opacity="0.169213"/>
<stop offset="1" stop-color="#F7295F" stop-opacity="0"/>
</radialGradient>
</defs>
</svg>
